<?xml version="1.0" encoding="UTF-8" standalone="no"?>
<svg width="29px" height="29px" viewBox="0 0 29 29" version="1.1" xmlns="http://www.w3.org/2000/svg" xmlns:xlink="http://www.w3.org/1999/xlink">
    <!-- Generator: Sketch 3.7.2 (28276) - http://www.bohemiancoding.com/sketch -->
    <title>social-color-1_logo-codepen</title>
    <desc>Created with Sketch.</desc>
    <defs></defs>
    <g id="Page-1" stroke="none" stroke-width="1" fill="none" fill-rule="evenodd">
        <g id="Desktop-HD" transform="translate(-707.000000, -550.000000)">
            <g id="social-color-1_logo-codepen" transform="translate(707.000000, 550.000000)">
                <g id="Group">
                    <ellipse id="Oval" fill="#030502" cx="14.2758621" cy="14.5" rx="14.2758621" ry="14.5"></ellipse>
                    <path d="M23.4288429,10.8634967 L14.7295311,4.97293208 C14.4547267,4.78683062 14.0969677,4.78683062 13.8221335,4.97293208 L5.12282172,10.8634967 C4.90466871,11.0121942 4.75862069,11.2726625 4.75862069,11.5545908 L4.75862069,17.4451615 C4.75862069,17.7303281 4.90889198,17.9935515 5.12282172,18.1361892 L13.8221276,24.0268263 C13.9595268,24.1198438 14.1177628,24.1666485 14.2759513,24.1666485 C14.4338959,24.1666485 14.5920605,24.1198438 14.7295252,24.0268263 L23.428837,18.1361892 C23.6392751,17.9977081 23.7931034,17.7335785 23.7931034,17.4451615 L23.7931034,11.5545908 C23.7931034,11.2873196 23.6577921,11.0175229 23.4288429,10.8634967 L23.4288429,10.8634967 Z M15.0937976,7.21648083 L21.5023332,11.5555937 L18.6398444,13.5006358 L15.0938035,11.0913219 L15.0938035,7.21648083 L15.0937976,7.21648083 Z M13.4578909,7.21648083 L13.4578909,11.0913219 L9.91204629,13.5006358 L7.04932552,11.5555937 L13.4578909,7.21648083 L13.4578909,7.21648083 Z M6.39449172,13.1096252 L8.44090681,14.4998731 L6.39449172,15.8901573 L6.39449172,13.1096252 L6.39449172,13.1096252 Z M13.4578909,21.7832715 L7.04932552,17.4441223 L9.91204629,15.4996119 L13.4578909,17.9084304 L13.4578909,21.7832715 L13.4578909,21.7832715 Z M14.2759572,16.4652575 L11.3829597,14.4998731 L14.2759572,12.5344948 L17.1687347,14.4998731 L14.2759572,16.4652575 L14.2759572,16.4652575 Z M15.0937976,21.7832715 L15.0937976,17.9084304 L18.6398384,15.4996119 L21.5023272,17.4441223 L15.0937976,21.7832715 L15.0937976,21.7832715 Z M22.157167,15.8901573 L20.1110136,14.4998731 L22.157167,13.1096252 L22.157167,15.8901573 L22.157167,15.8901573 Z" id="Shape" fill="#FFFFFF"></path>
                </g>
            </g>
        </g>
    </g>
</svg>