<?xml version="1.0" encoding="UTF-8" standalone="no"?>
<svg width="182px" height="53px" viewBox="0 0 182 53" version="1.1" xmlns="http://www.w3.org/2000/svg" xmlns:xlink="http://www.w3.org/1999/xlink">
    <!-- Generator: Sketch 3.7.2 (28276) - http://www.bohemiancoding.com/sketch -->
    <title>Group 4</title>
    <desc>Created with Sketch.</desc>
    <defs></defs>
    <g id="Page-1" stroke="none" stroke-width="1" fill="none" fill-rule="evenodd">
        <g id="Desktop-HD" transform="translate(-629.000000, -609.000000)">
            <g id="Group-4" transform="translate(629.000000, 608.000000)">
                <g id="Group-3" transform="translate(0.000000, 16.000000)" fill="#545454">
                    <path d="M7.26,17.3 C9.52,17.3 11.22,16.22 12.3,15.02 L11.62,14.04 C10.62,15.16 9.22,16.1 7.26,16.1 C3.86,16.1 2.08,13.54 2.08,10.2 C2.08,6.92 3.96,4.36 7.5,4.36 C8.98,4.36 10.46,4.96 11.32,5.9 L12.06,4.9 C10.98,3.78 9.32,3.14 7.5,3.14 C2.8,3.14 0.52,6.48 0.52,10.18 C0.52,13.9 2.68,17.3 7.26,17.3 L7.26,17.3 Z M19.32,17.38 C22.68,17.38 24.3,14.7 24.3,11.7 C24.3,8.74 22.68,6.06 19.32,6.06 C15.94,6.06 14.32,8.68 14.32,11.74 C14.32,14.74 15.94,17.38 19.32,17.38 L19.32,17.38 Z M19.3,16.18 C17.04,16.18 15.86,14.32 15.86,11.72 C15.86,9.14 17.04,7.24 19.3,7.24 C21.58,7.24 22.76,9.14 22.76,11.72 C22.76,14.32 21.58,16.18 19.3,16.18 L19.3,16.18 Z M38.52,6.06 C37.3,6.06 36.06,6.66 34.8,7.68 C34.48,6.68 33.74,6.06 32.22,6.06 C31.04,6.06 29.82,6.62 28.58,7.6 L28.36,6.46 L27.18,6.46 L27.18,17.02 L28.68,17.02 L28.68,8.8 C29.92,7.82 30.88,7.28 31.88,7.28 C33.1,7.28 33.52,8 33.52,9.6 L33.52,17 L35.02,17 L35.02,9.48 C35.02,9.24 35.02,9 35,8.78 C36.24,7.8 37.2,7.26 38.2,7.26 C39.42,7.26 39.84,7.98 39.84,9.58 L39.84,16.98 L41.34,16.98 L41.34,9.46 C41.34,7.46 40.84,6.04 38.54,6.04 L38.52,6.06 Z M46.82,2.84 C47.38,2.84 47.82,2.38 47.82,1.86 C47.82,1.3 47.38,0.84 46.82,0.84 C46.28,0.84 45.82,1.3 45.82,1.86 C45.82,2.38 46.28,2.84 46.82,2.84 L46.82,2.84 Z M46.06,17 L47.56,17 L47.56,6.44 L46.06,6.44 L46.06,17 Z M56.76,6.06 C55.5,6.06 54.22,6.58 52.94,7.58 L52.72,6.44 L51.54,6.44 L51.54,17 L53.04,17 L53.04,8.78 C54.3,7.8 55.36,7.28 56.42,7.28 C57.76,7.28 58.22,8 58.22,9.6 L58.22,17 L59.72,17 L59.72,9.48 C59.72,7.48 59.18,6.06 56.76,6.06 L56.76,6.06 Z M72.28,6.44 L68.64,6.44 C68.12,6.2 67.5,6.06 66.76,6.06 C64.18,6.06 62.96,7.72 62.96,9.54 C62.96,10.68 63.44,11.74 64.42,12.38 C63.3,13.34 62.82,13.96 62.82,14.78 C62.82,15.38 63.04,16.06 64.04,16.4 C62.92,17.28 62.32,18 62.32,19.18 C62.32,20.56 63.24,21.92 66.3,21.92 C69.64,21.92 72.12,20.16 72.12,17.9 C72.12,16.4 71.08,15.36 69.18,15.36 L65.72,15.36 C64.74,15.36 64.28,15.14 64.28,14.5 C64.28,13.94 64.66,13.54 65.46,12.86 C65.86,12.98 66.3,13.04 66.8,13.04 C69.36,13.04 70.58,11.36 70.58,9.52 C70.58,8.74 70.36,8 69.9,7.4 L72.34,7.62 L72.28,6.44 Z M66.82,11.9 C65.38,11.9 64.54,10.9 64.54,9.54 C64.54,8.22 65.38,7.22 66.82,7.22 C68.3,7.22 69.1,8.22 69.1,9.54 C69.1,10.9 68.28,11.9 66.82,11.9 L66.82,11.9 Z M70.74,18.1 C70.74,19.38 68.9,20.76 66.32,20.76 C64.8,20.76 63.76,20.36 63.76,19.12 C63.76,18.12 64.4,17.4 65.38,16.64 L65.62,16.64 L69.02,16.64 C70.1,16.64 70.74,17.08 70.74,18.1 L70.74,18.1 Z M80.32,2.84 C80.88,2.84 81.32,2.38 81.32,1.86 C81.32,1.3 80.88,0.84 80.32,0.84 C79.78,0.84 79.32,1.3 79.32,1.86 C79.32,2.38 79.78,2.84 80.32,2.84 L80.32,2.84 Z M79.56,17 L81.06,17 L81.06,6.44 L79.56,6.44 L79.56,17 Z M90.26,6.06 C89,6.06 87.72,6.58 86.44,7.58 L86.22,6.44 L85.04,6.44 L85.04,17 L86.54,17 L86.54,8.78 C87.8,7.8 88.86,7.28 89.92,7.28 C91.26,7.28 91.72,8 91.72,9.6 L91.72,17 L93.22,17 L93.22,9.48 C93.22,7.48 92.68,6.06 90.26,6.06 L90.26,6.06 Z M113.28,6.06 C112.06,6.06 110.82,6.66 109.56,7.68 C109.24,6.68 108.5,6.06 106.98,6.06 C105.8,6.06 104.58,6.62 103.34,7.6 L103.12,6.46 L101.94,6.46 L101.94,17.02 L103.44,17.02 L103.44,8.8 C104.68,7.82 105.64,7.28 106.64,7.28 C107.86,7.28 108.28,8 108.28,9.6 L108.28,17 L109.78,17 L109.78,9.48 C109.78,9.24 109.78,9 109.76,8.78 C111,7.8 111.96,7.26 112.96,7.26 C114.18,7.26 114.6,7.98 114.6,9.58 L114.6,16.98 L116.1,16.98 L116.1,9.46 C116.1,7.46 115.6,6.04 113.3,6.04 L113.28,6.06 Z M120.72,2.84 C121.28,2.84 121.72,2.38 121.72,1.86 C121.72,1.3 121.28,0.84 120.72,0.84 C120.18,0.84 119.72,1.3 119.72,1.86 C119.72,2.38 120.18,2.84 120.72,2.84 L120.72,2.84 Z M119.96,17 L121.46,17 L121.46,6.44 L119.96,6.44 L119.96,17 Z M131.86,1 L131.86,6.44 C131.32,6.22 130.64,6.06 129.78,6.06 C126.72,6.06 124.5,7.94 124.5,11.94 C124.5,15.4 126.26,17.38 128.78,17.38 C130.1,17.38 131.16,16.84 132,16.1 L132.18,17 L133.36,17 L133.36,1 L131.86,1 Z M126.04,11.94 C126.04,9.2 127.16,7.24 129.84,7.24 C130.68,7.24 131.34,7.38 131.86,7.62 L131.86,14.98 C130.84,15.78 130.08,16.16 128.88,16.16 C127.52,16.16 126.06,15.12 126.06,11.94 L126.04,11.94 Z M141.1,17 L150,17 L150,15.8 L143.32,15.8 L143.32,15.76 L145.56,13.58 C148.48,10.78 149.4,8.92 149.4,7.06 C149.4,4.62 147.74,3.16 145.24,3.16 C143.46,3.16 142.08,3.88 140.86,5.4 L141.52,6.3 C142.8,4.9 143.74,4.38 145.14,4.38 C146.8,4.38 147.86,5.38 147.86,7.1 C147.86,8.56 147.12,10.26 144.56,12.72 L141.1,16.08 L141.1,17 Z M156.18,17.28 C159.46,17.28 160.9,14.04 160.9,10.08 C160.9,6.24 159.46,3.14 156.18,3.14 C152.9,3.14 151.46,6.24 151.46,10.08 C151.46,14.04 152.9,17.28 156.18,17.28 L156.18,17.28 Z M156.16,16.08 C153.84,16.08 153,13.22 153,10.08 C153,7.08 153.84,4.34 156.16,4.34 C158.48,4.34 159.32,7.08 159.32,10.08 C159.32,13.22 158.48,16.08 156.16,16.08 L156.16,16.08 Z M168.06,15.8 L168.06,3.4 L166.78,3.4 L166.78,3.42 L163.42,5.98 L164.04,6.98 L166.52,5.16 L166.52,15.8 L163.62,15.8 L163.62,17 L170.98,17 L170.98,15.8 L168.06,15.8 Z M177.72,8.88 C176.5,8.88 175.36,9.36 174.52,10.12 C175.16,7.06 177.46,5.26 181,4.28 L180.6,3.14 C175.82,4.3 172.78,7.4 172.78,11.9 C172.78,15.46 174.68,17.3 177.34,17.3 C180.24,17.3 181.9,15.2 181.9,12.86 C181.9,10.9 180.4,8.88 177.72,8.88 L177.72,8.88 Z M177.34,16.1 C175.54,16.1 174.34,14.72 174.34,12 L174.34,11.94 C175.2,10.64 176.34,10.08 177.64,10.08 C179.38,10.08 180.34,11.36 180.34,12.9 C180.34,14.62 179.38,16.1 177.34,16.1 L177.34,16.1 Z" id="Comming-in-mid-2016"></path>
                </g>
                <path d="M160.5,1.5 L22.4963769,1.5" id="Line" stroke="#979797" stroke-linecap="square" opacity="0.249125466"></path>
                <path d="M160.5,53.5 L22.4963769,53.5" id="Line-Copy-2" stroke="#979797" stroke-linecap="square" opacity="0.249125466"></path>
                <path id="Path-22" stroke="#979797"></path>
            </g>
        </g>
    </g>
</svg>