<?xml version="1.0" encoding="UTF-8" standalone="no"?>
<svg width="340px" height="206px" viewBox="0 0 340 206" version="1.1" xmlns="http://www.w3.org/2000/svg" xmlns:xlink="http://www.w3.org/1999/xlink">
    <!-- Generator: Sketch 3.7.2 (28276) - http://www.bohemiancoding.com/sketch -->
    <title>Group 2</title>
    <desc>Created with Sketch.</desc>
    <defs></defs>
    <g id="Page-1" stroke="none" stroke-width="1" fill="none" fill-rule="evenodd">
        <g id="Desktop-HD" transform="translate(-550.000000, -314.000000)">
            <g id="Group-2" transform="translate(550.000000, 314.000000)">
                <path d="M129.192525,205.177488 C126.3031,204.766033 123.482513,204.217436 120.730679,203.531679 C117.978845,202.845922 115.295848,201.954451 112.681606,200.85724 C105.66443,197.839909 100.023255,193.794003 95.7579131,188.7194 C91.4925709,183.644798 88.2592148,177.473077 86.0577479,170.204052 C83.9938726,163.20933 83.4779116,155.974702 84.5098492,148.49995 C85.5417868,141.025198 87.6400285,133.79057 90.8046373,126.795848 C93.969246,119.801126 98.0625372,113.320819 103.084634,107.354732 C108.10673,101.388646 113.507123,96.4855564 119.285973,92.6453169 C126.853516,87.7078661 134.971304,84.0734082 143.63958,81.7418342 C146.253822,81.0560771 148.971217,80.6446291 151.791846,80.5074777 C154.612476,80.3703262 157.398666,80.644625 160.150499,81.330382 C166.066942,82.8390475 170.538604,85.616322 173.565621,89.6622886 C176.592639,93.7082553 178.450098,98.3027586 179.138057,103.445937 C179.826015,108.589115 179.550836,113.903652 178.312511,119.389708 C177.074186,124.875765 175.147931,129.675992 172.533689,133.790535 C171.02018,135.984957 169.403502,138.042198 167.683606,139.962317 C165.96371,141.882437 164.003058,143.596804 161.801591,145.10547 C161.251225,145.516924 160.494482,146.031234 159.53134,146.648415 C158.568198,147.265597 157.570673,147.779907 156.538736,148.191361 C155.506798,148.602815 154.474876,148.877114 153.442938,149.014265 C152.411001,149.151417 151.551066,148.877118 150.863107,148.191361 C150.31274,147.642755 150.071959,147.094158 150.140754,146.545552 C150.20955,145.996947 150.450332,145.448349 150.863107,144.899743 C151.275882,144.351138 151.723048,143.836828 152.204619,143.356798 C152.68619,142.876768 153.133356,142.499607 153.546132,142.225304 C154.922048,141.128093 156.263547,140.065186 157.570668,139.03655 C158.877789,138.007914 159.875314,136.739283 160.563272,135.230617 C161.939189,132.62474 163.074304,129.53888 163.968649,125.972943 C164.862995,122.407007 165.275764,118.806836 165.206968,115.172324 C165.138173,111.537811 164.450225,108.109077 163.143104,104.886019 C161.835983,101.662961 159.737741,99.0914106 156.848315,97.1712909 C152.995748,94.7025654 149.005649,93.3996466 144.877899,93.2624952 C140.750148,93.1253438 136.760049,93.8453779 132.907482,95.4226191 C129.054915,96.9998603 125.511982,99.19425 122.278578,102.005854 C119.045173,104.817458 116.327778,107.937606 114.126311,111.366391 C110.273744,117.538205 107.246772,124.395672 105.045305,131.939 C102.843838,139.482328 102.087096,146.888393 102.775054,154.157417 C103.050237,157.174749 103.669391,160.294896 104.632532,163.517955 C105.595674,166.741013 106.833981,169.655436 108.347489,172.261313 C109.998589,175.278644 112.337613,178.158781 115.36463,180.901809 C118.391647,183.644837 121.281029,185.976376 124.032863,187.896496 C127.610247,190.502373 131.565948,192.388177 135.900086,193.553964 C140.234224,194.719751 144.602695,195.268348 149.005629,195.199772 C153.408563,195.131197 157.742636,194.411162 162.007978,193.039648 C166.27332,191.668134 170.194624,189.679469 173.772008,187.073592 C175.698292,185.564926 177.590149,183.919134 179.447637,182.136166 C181.305124,180.353197 182.990597,178.501681 184.504106,176.581561 C186.980756,173.427079 189.31978,169.826908 191.521246,165.780942 C193.722713,161.734975 195.304994,157.723356 196.268136,153.745965 C197.506461,149.219969 198.125614,144.419741 198.125614,139.345139 C198.125614,132.213266 196.887308,125.321511 194.410657,118.669667 C191.934007,112.017824 189.526189,105.400367 187.18713,98.8170996 C185.948805,95.1140115 184.813691,91.4109789 183.781753,87.7078908 C182.749815,84.0048027 181.683496,80.3017701 180.582762,76.598682 C179.206845,71.935534 178.518897,67.1010192 178.518897,62.0949927 C178.518897,57.0889662 179.103653,52.2201641 180.273183,47.4884404 C181.442712,42.7567167 183.128185,38.1622133 185.329652,33.7047924 C187.531119,29.2473715 190.214116,25.1671783 193.378725,21.4640901 C195.305008,19.406819 197.334455,17.4181533 199.467126,15.4980336 C201.599798,13.5779138 203.835629,11.8635469 206.174688,10.3548813 C208.78893,8.70906439 211.540722,7.20042149 214.430147,5.82890738 C217.319573,4.45739326 220.27775,3.29162375 223.304767,2.33156387 C227.157334,1.23435257 231.113035,0.514318461 235.17199,0.171439931 C239.230945,-0.171438598 242.498698,-1.9048693e-06 244.975348,0.685755154 C245.525715,0.960057977 246.110471,1.13149467 246.729634,1.20007038 C247.348796,1.26864608 247.795963,1.3715081 248.071146,1.50865951 C252.749263,2.6058708 256.49858,4.69739846 259.31921,7.78330522 C262.139839,10.869212 264.238081,14.4350952 265.613998,18.4810618 C266.989915,22.5270285 267.71226,26.8129458 267.781056,31.3389424 C267.849852,35.864939 267.402686,40.0479943 266.439544,43.8882338 C265.33881,48.1399276 263.859722,51.9458222 262.002234,55.3060318 C260.144747,58.6662413 257.633736,61.9235385 254.469127,65.078021 C252.130069,67.409595 249.515866,69.3296859 246.62644,70.8383515 C243.737015,72.347017 240.710043,73.3756372 237.545435,73.9242428 C236.582293,74.1985456 235.447179,74.4042697 234.140058,74.5414211 C232.832937,74.6785725 231.59463,74.6442852 230.425101,74.438558 C229.255571,74.2328309 228.223649,73.8213829 227.329303,73.2042015 C226.434957,72.5870201 225.987791,71.5926873 225.987791,70.2211732 C225.850199,68.5753563 226.228571,67.6495981 227.122917,67.443871 C228.017263,67.2381439 229.083582,67.1352819 230.321907,67.1352819 C233.624108,66.9981305 236.479092,66.0723723 238.886947,64.3579797 C241.294801,62.643587 243.324248,60.4834847 244.975348,57.8776079 C246.626449,55.2717311 247.93355,52.4601693 248.896692,49.4428382 C249.859834,46.4255072 250.478987,43.4767961 250.75417,40.5966164 C251.029354,38.127891 251.063751,35.4877659 250.857364,32.676162 C250.650976,29.864558 250.135015,27.121571 249.309465,24.4471184 C248.483915,21.7726659 247.280006,19.3382649 245.697701,17.1438423 C244.115397,14.9494197 242.08595,13.2350527 239.6093,12.00069 C236.719874,10.6291759 233.796095,9.94342916 230.837874,9.94342916 C227.879652,9.94342916 224.99027,10.5263139 222.169641,11.6921009 C219.349011,12.8578879 216.769206,14.4693928 214.430147,16.526664 C212.091089,18.5839352 210.164834,20.8468995 208.651325,23.3156249 C206.862634,26.332956 205.383545,29.7274025 204.214016,33.4990663 C203.044487,37.2707302 202.390936,40.8709007 202.253344,44.299686 C201.978161,50.0600453 202.666109,55.6145942 204.317209,60.9634992 C205.968309,66.3124043 207.756974,71.5926544 209.683258,76.8044081 C210.783991,79.8217391 211.919106,82.7704502 213.088635,85.6506299 C214.258164,88.5308095 215.324484,91.5480953 216.287626,94.7025778 C218.764276,102.383057 220.724928,110.269145 222.169641,118.361078 C223.614354,126.453011 223.579956,134.544823 222.066448,142.636757 C220.965714,148.945721 218.695485,155.117442 215.255693,161.152105 C211.815901,167.186767 208.100981,172.604166 204.110823,177.404466 C200.258255,181.930462 195.752195,185.942081 190.592507,189.439442 C185.432819,192.936803 179.894837,195.919801 173.978394,198.388527 C168.061952,200.857252 162.008009,202.743056 155.816383,204.045994 C149.624757,205.348932 143.639609,205.931817 137.860758,205.794666 C134.971333,205.794666 132.081951,205.588942 129.192525,205.177488 L129.192525,205.177488 Z" id="S-Copy-6" fill="#4A4A4A"></path>
                <path d="M296.344044,183.402044 C296.130212,183.438908 295.916379,183.462185 295.702545,183.471873 C294.978317,183.504688 294.319938,183.225772 293.727388,182.635118 C293.167757,182.110092 292.813878,181.470226 292.665741,180.715501 C292.517603,179.960776 292.525833,179.22247 292.69043,178.500559 C292.756269,178.336489 292.822107,178.172421 292.887946,178.00835 C292.953785,177.844279 292.970244,177.680211 292.937325,177.516141 C292.772728,177.548955 292.616363,177.655599 292.468225,177.836077 C292.320088,178.016554 292.180182,178.172419 292.048504,178.303676 C291.785148,178.533374 291.546486,178.76307 291.332509,178.992769 C291.118533,179.222467 290.89633,179.46857 290.665894,179.731083 C289.645391,180.813948 288.493227,181.716323 287.209368,182.438234 C286.550979,182.832003 285.810302,183.135529 284.987316,183.348821 C284.16433,183.562113 283.374275,183.570316 282.617127,183.373432 C282.551288,183.340617 282.518369,183.324211 282.518369,183.324211 C281.925819,183.127326 281.456724,182.807393 281.111069,182.364402 C280.765415,181.921412 280.510293,181.421004 280.345696,180.863164 C280.181099,180.305324 280.090572,179.722882 280.074112,179.115821 C280.057652,178.50876 280.082341,177.942725 280.14818,177.417699 C280.232279,176.74706 280.376056,176.052636 280.579513,175.334409 C279.748727,176.17246 278.905419,177.006345 278.049575,177.836077 C276.848015,179.000978 275.588865,180.092031 274.272087,181.109269 C273.877053,181.404596 273.482026,181.691715 273.086992,181.970635 C272.691959,182.249555 272.264012,182.471047 271.80314,182.635118 C271.342267,182.832002 270.889632,183.012477 270.445219,183.176548 C270.000806,183.340618 269.515252,183.455466 268.98854,183.521094 L267.013383,183.521094 C266.223316,183.422652 265.45795,183.168346 264.717262,182.75817 C263.976575,182.347993 263.425182,181.765552 263.063068,181.010827 C262.733873,180.288916 262.552819,179.534203 262.5199,178.746664 C262.494651,178.142633 262.517815,177.54826 262.589394,176.963535 C261.945195,177.639523 261.238961,178.397963 260.470674,179.238873 C259.631228,180.157669 258.717726,180.986213 257.730143,181.72453 C256.742559,182.462848 255.705612,183.012476 254.61927,183.373432 C253.532928,183.734387 252.413683,183.71798 251.261502,183.324211 C250.80063,183.192954 250.339764,182.946852 249.878892,182.585897 C249.088825,181.995242 248.586811,181.265139 248.372834,180.395565 C248.158858,179.525991 248.109479,178.615413 248.224697,177.663803 C248.255332,177.410785 248.294694,177.158927 248.342782,176.908229 C247.961098,177.366761 247.609004,177.782687 247.286497,178.156013 C246.776246,178.746667 246.438827,179.124024 246.274229,179.288094 C245.879196,179.681864 245.352492,180.157661 244.694103,180.715501 C244.035714,181.273341 243.336186,181.790156 242.595498,182.265961 C241.854811,182.741765 241.089445,183.094512 240.299378,183.324211 C239.509311,183.553909 238.785094,183.553909 238.126705,183.324211 C237.567074,183.127326 237.073289,182.733562 236.645336,182.142908 C236.349061,181.683511 236.151548,181.150289 236.052789,180.543228 C235.954031,179.936167 235.921112,179.370132 235.954031,178.845106 C235.987517,178.594766 236.03005,178.34655 236.081631,178.100456 C235.621088,178.634196 235.150606,179.161329 234.670179,179.681862 C234.01179,180.436586 233.271113,181.158486 232.448127,181.847583 C231.62514,182.536679 230.719869,183.012477 229.732285,183.27499 C229.073896,183.43906 228.349679,183.455467 227.559612,183.324211 C226.769545,183.192954 226.144085,182.832004 225.683212,182.24135 C225.255259,181.716324 225.049516,181.043645 225.065976,180.223292 C225.082435,179.402939 225.172963,178.681039 225.33756,178.057571 C225.469238,177.466917 225.518616,177.146984 225.485697,177.097763 C225.452777,177.048541 225.288182,177.204406 224.991907,177.565362 C224.860229,177.696618 224.654486,177.91811 224.374671,178.229844 C224.094855,178.541578 223.806814,178.828697 223.510539,179.09121 C222.621714,180.04282 221.732902,180.863161 220.844077,181.552257 C220.350285,181.913212 219.840041,182.282366 219.313329,182.659728 C218.786618,183.03709 218.210536,183.291396 217.585067,183.422652 C217.222953,183.488281 216.819695,183.529298 216.375283,183.545705 C215.93087,183.562112 215.527613,183.504688 215.165499,183.373432 C215.000901,183.307803 214.844536,183.242176 214.696399,183.176548 C214.548261,183.11092 214.391896,183.028885 214.227299,182.930443 C213.931024,182.766373 213.675902,182.487457 213.461925,182.093687 C213.247949,181.699918 213.108043,181.338968 213.042204,181.010827 C212.844688,180.190474 212.819999,179.38654 212.968136,178.599001 C213.116274,177.811462 213.354936,177.032139 213.684131,176.261007 C214.013325,175.489875 214.391893,174.751568 214.819846,174.046065 C215.247799,173.340561 215.659286,172.643272 216.05432,171.954175 C216.515192,171.199451 216.992517,170.436534 217.486309,169.665402 C217.980101,168.89427 218.457426,168.114946 218.918298,167.327408 C219.346251,166.638311 219.782427,165.949225 220.22684,165.260128 C220.671252,164.571032 221.07451,163.849132 221.436624,163.094407 C221.601221,162.79908 221.741127,162.511961 221.856345,162.233041 C221.971563,161.954121 222.06209,161.650595 222.127929,161.322454 C222.226687,160.863056 222.284295,160.436479 222.300755,160.04271 C222.317215,159.64894 222.605256,159.386431 223.164887,159.255175 C223.59284,159.156732 224.012556,159.140326 224.42405,159.205954 C224.835543,159.271582 225.255259,159.304396 225.683212,159.304396 C225.81489,159.304396 226.012404,159.279785 226.27576,159.230564 C226.539115,159.181343 226.802467,159.148529 227.065823,159.132122 C227.329178,159.115715 227.567841,159.140326 227.781817,159.205954 C227.995794,159.271582 228.135699,159.402837 228.201538,159.599721 C228.366135,159.960677 228.374365,160.403661 228.226228,160.928686 C228.07809,161.453712 227.938185,161.896696 227.806507,162.257652 C227.477312,163.110819 227.082285,163.922956 226.621412,164.694088 C226.16054,165.46522 225.699674,166.228136 225.238802,166.982861 C224.712091,167.836028 224.210076,168.689182 223.732744,169.54235 C223.255412,170.395517 222.736939,171.248671 222.177308,172.101838 C221.617677,172.955005 221.066284,173.799956 220.523113,174.636716 C219.979942,175.473476 219.477928,176.351241 219.017056,177.270036 C218.852459,177.630991 218.671404,178.073975 218.473888,178.599001 C218.276371,179.124027 218.29283,179.567011 218.523267,179.927966 C218.819542,180.387364 219.206339,180.535025 219.683672,180.370955 C220.161004,180.206884 220.663018,179.927968 221.189729,179.534199 C221.71644,179.140429 222.193765,178.713852 222.621718,178.254455 C223.049671,177.795057 223.362401,177.466921 223.559918,177.270036 C223.856193,176.974709 224.119545,176.654776 224.349981,176.310228 C224.580417,175.96568 224.82731,175.62934 225.090665,175.301199 C225.551538,174.743359 225.995944,174.16912 226.423896,173.578466 C226.851849,172.987812 227.279796,172.397167 227.707749,171.806512 C228.26738,171.051788 228.827002,170.198633 229.386633,169.247024 C230.1767,168.000087 230.966755,166.728559 231.756822,165.432402 C232.546889,164.136244 233.172349,162.766275 233.633221,161.322454 C233.69906,161.092755 233.773128,160.879466 233.855427,160.682582 C233.937725,160.485697 233.995333,160.354443 234.028253,160.288814 C234.127011,160.059115 234.209309,159.878641 234.275147,159.747384 C234.340986,159.616128 234.489122,159.484873 234.719558,159.353617 C235.048752,159.22236 235.427321,159.123919 235.855273,159.058291 C236.151549,158.992663 236.447819,158.968053 236.744094,158.98446 C237.040369,159.000867 237.33664,159.025477 237.632915,159.058291 C237.96211,159.091105 238.28307,159.082902 238.595804,159.033681 C238.908539,158.984459 239.229499,158.959849 239.558694,158.959849 C239.887888,158.959849 240.110091,159.03368 240.225309,159.181343 C240.340528,159.329007 240.398136,159.509482 240.398136,159.722774 C240.398136,159.936065 240.365217,160.173964 240.299378,160.436477 C240.233539,160.69899 240.167701,160.928685 240.101862,161.12557 C240.003104,161.552154 239.830279,161.962324 239.583383,162.356093 C239.336487,162.749863 239.097825,163.143626 238.867389,163.537396 C238.340677,164.423377 237.830433,165.227311 237.336642,165.949222 C236.480736,167.196158 235.69891,168.492296 234.991142,169.837675 C234.283374,171.183054 233.518008,172.479192 232.695021,173.726129 C231.937874,174.874623 231.312414,176.105134 230.818622,177.417699 C230.160233,179.156847 230.193152,180.092035 230.91738,180.223292 C231.279494,180.321734 231.625143,180.247904 231.954337,180.001798 C232.283532,179.755692 232.579803,179.5342 232.843158,179.337315 C233.172353,179.074802 233.468624,178.795886 233.731979,178.500559 C233.995335,178.205232 234.275146,177.926316 234.571421,177.663803 C234.834777,177.368476 235.081669,177.08956 235.312105,176.827048 C235.542541,176.564535 235.789434,176.285619 236.052789,175.990292 C236.707811,175.181907 237.33327,174.388264 237.929182,173.60934 C237.978277,173.516633 238.027658,173.424307 238.077326,173.332361 C238.867393,171.855726 239.723286,170.436537 240.64503,169.074751 C241.566775,167.712965 242.455587,166.310182 243.311493,164.866361 C243.673607,164.308521 244.027486,163.742486 244.37314,163.168239 C244.718794,162.593992 244.924538,161.962329 244.990377,161.273233 C245.023296,161.043534 245.064445,160.805635 245.113824,160.559529 C245.163203,160.313424 245.27019,160.108338 245.434787,159.944268 C245.796901,159.583312 246.348294,159.370024 247.088982,159.304396 C247.829669,159.238767 248.430441,159.189547 248.891313,159.156733 C249.121749,159.123919 249.385101,159.099309 249.681376,159.082901 C249.977651,159.066494 250.257462,159.082901 250.520818,159.132122 C250.784173,159.181344 251.014606,159.279784 251.212123,159.427448 C251.40964,159.575112 251.524856,159.81301 251.557776,160.141152 C251.590695,160.567735 251.533087,161.002516 251.384949,161.445506 C251.236812,161.888497 251.039298,162.315074 250.792402,162.72525 C250.545506,163.135427 250.273925,163.545597 249.97765,163.955774 C249.681374,164.36595 249.434482,164.735104 249.236965,165.063245 C248.282301,166.53988 247.344111,168.016493 246.422366,169.493129 C245.500621,170.969764 244.59535,172.479191 243.706525,174.021454 C243.640686,174.152711 243.50078,174.39061 243.286804,174.735158 C243.072827,175.079706 242.842394,175.47347 242.595498,175.91646 C242.348602,176.359451 242.10994,176.818842 241.879504,177.294646 C241.649068,177.770451 241.492703,178.213435 241.410404,178.623612 C241.328105,179.033788 241.344565,179.370128 241.459783,179.632641 C241.575001,179.895154 241.830123,180.026408 242.225156,180.026408 C242.653109,180.059222 243.072826,179.968985 243.484319,179.755693 C243.895812,179.542401 244.29084,179.271689 244.669414,178.943548 C245.047988,178.615406 245.401866,178.26266 245.731061,177.885298 C246.060255,177.507935 246.356526,177.171596 246.619882,176.876268 C247.475788,175.957473 248.274072,175.005878 249.01476,174.021454 C249.288017,173.658278 249.555672,173.290637 249.817726,172.918531 C249.903154,172.755575 249.989381,172.598193 250.076407,172.446385 C250.717737,171.251945 251.382856,170.066139 252.071769,168.888958 C252.121118,168.796966 252.172477,168.70948 252.225844,168.6265 C252.832558,167.5962 253.457539,166.57252 254.100791,165.555454 C255.532787,163.29128 257.03883,161.092767 258.618964,158.959849 C259.112755,158.369195 259.507783,157.811363 259.804058,157.286337 C259.902816,157.089453 260.009803,156.859757 260.125021,156.597244 C260.240239,156.334731 260.413064,156.154257 260.6435,156.055814 C260.445983,155.891744 260.149713,155.801506 259.754679,155.785099 C259.359646,155.768692 258.981078,155.752285 258.618964,155.735878 C258.25685,155.719471 257.944119,155.64564 257.680764,155.514384 C257.417408,155.383127 257.318651,155.120618 257.38449,154.726849 C257.450329,154.365894 257.639613,154.119791 257.952348,153.988535 C258.265083,153.857279 258.610732,153.783448 258.989306,153.767041 C259.367879,153.750634 259.746447,153.767041 260.125021,153.816262 C260.503595,153.865483 260.808095,153.873686 261.038531,153.840872 C261.499404,153.775244 261.910891,153.611176 262.273005,153.348663 C262.635119,153.08615 262.964309,152.766217 263.260584,152.388855 C263.556859,152.011492 263.82021,151.617729 264.050647,151.207552 C264.281083,150.797376 264.495056,150.411816 264.692573,150.05086 C265.054687,149.394578 265.408566,148.738306 265.75422,148.082023 C266.099874,147.425741 266.420834,146.753061 266.717109,146.063965 C266.815868,145.801452 266.914625,145.497926 267.013383,145.153378 C267.112141,144.808829 267.219128,144.464286 267.334346,144.119738 C267.449564,143.77519 267.58124,143.447054 267.729377,143.135319 C267.877515,142.823585 268.066799,142.56928 268.297235,142.372395 C268.560591,142.17551 268.873321,142.044256 269.235435,141.978628 C269.597549,141.912999 269.976117,141.880186 270.371151,141.880186 C270.766184,141.880186 271.161212,141.896593 271.556245,141.929407 C271.951279,141.962221 272.313387,141.945814 272.642582,141.880186 C273.037615,141.814557 273.482021,141.77354 273.975813,141.757133 C274.469605,141.740726 274.848173,141.962218 275.111529,142.421616 C275.276126,142.749757 275.284356,143.11891 275.136218,143.529087 C274.988081,143.939263 274.848175,144.308417 274.716497,144.636558 C274.453141,145.391283 274.099263,146.113182 273.65485,146.802279 C273.210437,147.491375 272.774261,148.196868 272.346308,148.918779 C271.885436,149.706318 271.342273,150.518455 270.716803,151.355215 C270.091334,152.191975 269.646928,153.06974 269.383572,153.988535 C269.581089,154.054163 269.827981,154.078773 270.124256,154.062366 C270.420531,154.045959 270.725031,154.029553 271.037766,154.013145 C271.350501,153.996738 271.646772,153.996738 271.926587,154.013145 C272.206403,154.029553 272.445065,154.103383 272.642582,154.23464 C272.873018,154.431524 272.905937,154.726847 272.74134,155.120616 C272.576742,155.514386 272.379229,155.776895 272.148792,155.908151 C271.68792,156.170664 271.169446,156.260902 270.593356,156.178866 C270.017265,156.096831 269.482332,156.072221 268.98854,156.105035 C268.297232,156.105035 267.754069,156.31012 267.359035,156.720297 C266.964002,157.130473 266.601893,157.614474 266.272699,158.172314 C264.725484,160.666187 263.194753,163.143616 261.680458,165.604675 C260.166163,168.065734 258.569593,170.510349 256.890701,172.938594 C256.462748,173.562062 256.06772,174.201928 255.705606,174.85821 C255.343492,175.514493 255.080141,176.203579 254.915543,176.925489 C254.750946,177.483329 254.734487,177.959127 254.866164,178.352896 C254.997842,178.746666 255.211815,179.041989 255.508091,179.238873 C255.804366,179.435758 256.166474,179.517792 256.594427,179.484978 C257.02238,179.452164 257.483246,179.304502 257.977037,179.041989 C258.832943,178.582592 259.58185,177.983743 260.223779,177.245425 C260.865708,176.507108 261.482939,175.760598 262.075489,175.005873 C262.689274,174.255002 263.285317,173.498249 263.863633,172.735597 C264.311279,171.74837 264.818025,170.790605 265.383878,169.862286 C266.173945,168.566128 267.095676,167.360227 268.149098,166.244547 C269.202521,165.128867 270.321766,164.062424 271.506866,163.045187 C272.691967,162.027949 273.975806,161.158388 275.358423,160.436477 C276.049732,160.075522 276.806868,159.763792 277.629854,159.501279 C279.012472,159.10751 280.395068,158.927035 281.777685,158.959849 C282.008121,158.992663 282.279703,159.025477 282.592438,159.058291 C282.905172,159.091105 283.209673,159.148529 283.505948,159.230564 C283.802223,159.3126 284.073804,159.427447 284.3207,159.575111 C284.567596,159.722774 284.75688,159.911453 284.888558,160.141152 C285.020236,160.403664 285.118993,160.649767 285.184832,160.879466 C285.250671,161.109164 285.250671,161.371673 285.184832,161.667 C285.053154,162.22484 284.822721,162.725248 284.493527,163.168239 C284.164332,163.611229 283.851602,164.062417 283.555327,164.521814 C283.324891,164.849956 283.086228,165.210906 282.839332,165.604675 C282.592436,165.998444 282.238558,166.178919 281.777685,166.146105 C281.547249,166.146105 281.390884,166.080478 281.308585,165.949222 C281.226287,165.817965 281.168678,165.653897 281.135759,165.457012 C281.102839,165.260127 281.102839,165.063246 281.135759,164.866361 C281.168678,164.669476 281.185138,164.489001 281.185138,164.324931 C281.218057,163.865533 281.209828,163.389736 281.160448,162.897524 C281.111069,162.405312 280.938245,161.945921 280.64197,161.519338 C280.246936,161.027126 279.7943,160.846651 279.284049,160.977907 C278.773797,161.109164 278.271783,161.371673 277.777991,161.765442 C277.284199,162.159212 276.831564,162.610399 276.42007,163.119018 C276.008577,163.627637 275.687617,164.013197 275.457181,164.27571 C274.239161,165.653903 273.136376,167.122313 272.148792,168.680983 C271.161209,170.239654 270.223018,171.822911 269.334193,173.430803 C268.939159,174.185528 268.577051,174.973055 268.247856,175.793408 C267.918662,176.613761 267.819905,177.466915 267.951583,178.352896 C268.050341,179.238878 268.40422,179.796709 269.01323,180.026408 C269.62224,180.256107 270.305308,180.305327 271.062456,180.174071 C271.819603,180.042814 272.576739,179.804916 273.333887,179.460367 C274.091034,179.115819 274.667116,178.795886 275.06215,178.500559 C275.424264,178.238046 275.778143,177.95913 276.123797,177.663803 C276.469451,177.368476 276.82333,177.073154 277.185444,176.777827 C277.4488,176.515314 277.720381,176.252805 278.000196,175.990292 C278.280012,175.727779 278.551593,175.46527 278.814949,175.202757 C279.111224,174.874616 279.415724,174.554683 279.728459,174.242949 C280.041194,173.931214 280.345694,173.611282 280.64197,173.28314 C281.23452,172.626858 281.818831,171.978789 282.394922,171.338914 C282.409365,171.322872 282.423771,171.306804 282.438142,171.29071 C283.037137,170.322717 283.665019,169.38353 284.321796,168.473136 C284.346658,168.411431 284.370982,168.349457 284.394769,168.287216 C284.502676,168.004865 284.687956,167.783116 284.950613,167.621966 C284.962838,167.605805 284.975072,167.589654 284.987316,167.573512 C286.007819,166.228133 287.176442,164.981216 288.493221,163.832721 C288.855335,163.50458 289.233903,163.192851 289.628936,162.897524 C290.02397,162.602197 290.435457,162.306874 290.86341,162.011547 C291.488879,161.617778 292.122569,161.240421 292.764499,160.879466 C293.406428,160.51851 294.089497,160.206781 294.813725,159.944268 C295.406275,159.714569 296.007046,159.484874 296.616056,159.255175 C297.225066,159.025476 297.858756,158.910628 298.517145,158.910628 C298.81342,158.943442 299.11792,158.976256 299.430655,159.00907 C299.74339,159.041884 300.04789,159.107511 300.344166,159.205954 C300.805038,159.33721 301.125998,159.599719 301.307055,159.993489 C301.488112,160.387258 301.710315,160.764615 301.97367,161.12557 C301.940751,161.059942 302.014819,160.88767 302.195876,160.60875 C302.376933,160.32983 302.500379,160.157559 302.566218,160.091931 C302.763734,159.763789 303.060005,159.517687 303.455039,159.353617 C303.94883,159.156732 304.500223,159.074698 305.109233,159.107512 C305.718243,159.140326 306.302555,159.140326 306.862185,159.107512 C307.125541,159.107512 307.388893,159.050088 307.652248,158.935239 C307.915604,158.820389 308.178956,158.844999 308.442311,159.00907 C308.606909,159.107512 308.705665,159.238767 308.738585,159.402838 C308.771504,159.566908 308.755045,159.722773 308.689206,159.870436 C308.623367,160.0181 308.54107,160.173965 308.442311,160.338035 C308.343553,160.502106 308.261255,160.63336 308.195417,160.731803 C307.174913,162.241252 306.220264,163.775289 305.331438,165.33396 C304.442613,166.892631 303.537341,168.459481 302.615597,170.034559 C302.352241,170.493957 302.088889,170.953347 301.825534,171.412745 C301.562178,171.872143 301.282367,172.331533 300.986092,172.790931 C300.393542,173.742541 299.768081,174.726949 299.109692,175.744187 C298.451303,176.761425 297.990438,177.844274 297.727082,178.992769 C297.661243,179.189653 297.628324,179.419349 297.628324,179.681862 C297.628324,179.944375 297.76,180.141256 298.023355,180.272513 C298.099845,180.310635 298.181272,180.335225 298.267635,180.346281 C298.541511,180.20458 298.797505,180.056939 299.035624,179.903356 C299.315439,179.722878 299.587021,179.517793 299.850376,179.288094 C300.508765,178.795882 301.109536,178.262661 301.652707,177.688414 C302.195878,177.114167 302.730812,176.515318 303.257523,175.89185 C303.981751,175.038683 304.722428,174.193732 305.479575,173.356972 C306.236723,172.520212 306.96094,171.675261 307.652248,170.822094 C308.409396,169.903298 309.133613,168.976314 309.824922,168.041111 C310.51623,167.105909 311.207528,166.162517 311.898837,165.210908 C312.491387,164.390555 313.059239,163.562011 313.60241,162.72525 C314.145581,161.88849 314.729893,161.059946 315.355362,160.239593 C315.618718,159.878638 315.87384,159.575112 316.120736,159.329006 C316.367632,159.0829 316.705051,158.894222 317.133004,158.762965 C317.560957,158.631709 317.980674,158.574285 318.392167,158.590692 C318.80366,158.607099 319.223377,158.598896 319.65133,158.566082 C320.013444,158.533268 320.342634,158.475844 320.638909,158.393808 C320.935184,158.311773 321.264373,158.270756 321.626488,158.270756 C321.659407,158.270756 321.642947,158.369197 321.577109,158.566082 C321.51127,158.762966 321.437202,158.976255 321.354903,159.205954 C321.272605,159.435653 321.182078,159.657145 321.083319,159.870436 C320.984561,160.083728 320.935182,160.206779 320.935182,160.239593 C320.770585,160.600549 320.61422,160.945092 320.466082,161.273233 C320.317945,161.601374 320.194499,161.945917 320.09574,162.306873 C319.865304,163.192854 319.67602,164.078822 319.527883,164.964803 C319.379745,165.850784 319.22338,166.736752 319.058783,167.622733 C318.795427,169.066554 318.515616,170.47754 318.219341,171.855733 C317.923066,173.233926 317.47866,174.595692 316.88611,175.941071 C316.425237,176.991123 315.816236,178.008345 315.059089,178.992769 C314.301941,179.977192 313.446048,180.830346 312.491384,181.552257 C311.53672,182.274168 310.483313,182.823796 309.331132,183.201158 C308.178951,183.578521 306.977409,183.668758 305.72647,183.471873 L305.677091,183.471873 C305.347896,183.406245 305.018707,183.332414 304.689512,183.250379 C304.360317,183.168344 304.055817,183.045293 303.776002,182.881222 C303.496186,182.717152 303.249294,182.512066 303.035318,182.265961 C302.821341,182.019855 302.664976,181.716329 302.566218,181.355373 C302.40162,180.764719 302.450999,180.16587 302.714355,179.558809 C302.97771,178.951748 303.356278,178.467747 303.85007,178.106792 C304.409701,177.713022 304.804728,177.647395 305.035165,177.909908 C305.265601,178.172421 305.446655,178.549778 305.578333,179.041989 C305.710011,179.534201 305.841687,180.042812 305.973364,180.567838 C306.105042,181.092864 306.351934,181.421001 306.714048,181.552257 C307.076162,181.683514 307.446501,181.6507 307.825075,181.453815 C308.203648,181.25693 308.557527,180.986218 308.886722,180.64167 C309.215916,180.297122 309.512187,179.927968 309.775543,179.534199 C310.038898,179.140429 310.252871,178.812293 310.417469,178.54978 C310.9771,177.598171 311.429735,176.597355 311.77539,175.547303 C312.121044,174.497252 312.425544,173.447215 312.6889,172.397164 C313.051014,170.986157 313.437812,169.55056 313.849305,168.090332 C314.260798,166.630104 314.548839,165.161694 314.713436,163.685059 C314.548839,163.783501 314.384244,163.947569 314.219647,164.177268 C314.05505,164.406967 313.939833,164.603849 313.873994,164.767919 C313.676478,165.030432 313.478964,165.268331 313.281447,165.481623 C313.08393,165.694914 312.886417,165.932813 312.6889,166.195326 C312.326786,166.654724 311.989366,167.122318 311.676632,167.598123 C311.363897,168.073927 311.026477,168.541522 310.664363,169.000919 C310.284011,169.493795 309.895422,170.000356 309.498593,170.520606 C309.450362,170.645712 309.386312,170.770818 309.306443,170.895925 C309.191225,171.076403 309.067778,171.240471 308.936101,171.388135 C308.804423,171.535798 308.689206,171.658849 308.590448,171.757292 C308.261254,172.151061 307.948523,172.561231 307.652248,172.987815 C307.365649,173.400466 307.048251,173.797759 306.700043,174.179705 C306.670874,174.217193 306.641719,174.254638 306.612579,174.292039 C306.398316,174.593239 306.177017,174.880402 305.948675,175.153536 C305.777547,175.358233 305.602467,175.562927 305.423432,175.767623 C305.162333,176.098638 304.901234,176.435372 304.640133,176.777827 C304.014663,177.59818 303.356284,178.39391 302.664976,179.165042 C301.973667,179.936174 301.25768,180.666277 300.516992,181.355373 C299.776304,182.04447 298.978019,182.635115 298.122113,183.127327 C297.924597,183.291397 297.661245,183.422652 297.33205,183.521094 C297.002856,183.619537 296.706585,183.60313 296.44323,183.471873 C296.406973,183.450189 296.373911,183.426913 296.344044,183.402044 Z M252.446596,152.216581 C251.985724,151.986883 251.631845,151.650543 251.384949,151.207552 C251.138053,150.764562 251.063986,150.247747 251.162744,149.657093 C251.261502,149.132067 251.491935,148.607049 251.854049,148.082023 C252.216163,147.556997 252.62765,147.13042 253.088523,146.802279 C253.615234,146.375695 254.240694,146.162407 254.964922,146.162407 C256.051264,146.162407 256.759022,146.687425 257.088217,147.737477 C257.186975,148.16406 257.195205,148.607044 257.112906,149.066442 C257.030607,149.525839 256.882472,149.968823 256.668496,150.395407 C256.454519,150.821991 256.174708,151.199347 255.829054,151.527488 C255.483399,151.85563 255.113061,152.101732 254.718028,152.265802 C254.322994,152.429873 253.927966,152.503704 253.532933,152.487297 C253.1379,152.47089 252.775791,152.380652 252.446596,152.216581 Z M287.159989,179.927966 C288.048815,179.501383 288.847099,178.951754 289.554868,178.279065 C290.262636,177.606376 290.929245,176.892679 291.554715,176.137954 C292.608137,174.82539 293.612166,173.488234 294.56683,172.126449 C295.521494,170.764663 296.410306,169.345473 297.233292,167.868838 C297.595407,167.212556 297.957515,166.556283 298.319629,165.900001 C298.681743,165.243718 298.994473,164.554632 299.257829,163.832721 C299.389507,163.406138 299.496493,162.946747 299.578792,162.454535 C299.661091,161.962324 299.554104,161.51934 299.257829,161.12557 C298.895715,160.666173 298.41839,160.502104 297.82584,160.633361 C297.23329,160.764617 296.723046,160.945092 296.295093,161.174791 C295.109992,161.831073 294.048356,162.733448 293.110151,163.881942 C292.171947,165.030437 291.307824,166.1461 290.517757,167.228966 C290.056885,167.81962 289.628938,168.426672 289.233905,169.05014 C288.838871,169.673609 288.427384,170.297067 287.999431,170.920536 C287.571478,171.544004 287.176451,172.18387 286.814337,172.840152 C286.452223,173.496434 286.090114,174.169114 285.728,174.85821 C285.596322,175.153537 285.439957,175.481674 285.2589,175.842629 C285.077843,176.203584 284.921478,176.580941 284.7898,176.97471 C284.658122,177.36848 284.567595,177.75404 284.518216,178.131402 C284.468837,178.508765 284.526445,178.861511 284.691042,179.189652 C284.954398,179.747492 285.300047,180.067425 285.728,180.14946 C286.155953,180.231496 286.633278,180.157665 287.159989,179.927966 Z M322.564687,183.521094 C321.708781,183.455466 320.918726,183.209364 320.194498,182.78278 C319.239834,182.22494 318.597914,181.519447 318.26872,180.66628 C317.939525,179.813113 317.79962,178.902535 317.848999,177.934519 C317.898378,176.966502 318.079432,175.9985 318.392167,175.030484 C318.704902,174.062467 319.042321,173.201109 319.404435,172.446385 C320.293261,170.411909 321.404276,168.516922 322.737514,166.761367 C324.070752,165.005812 325.675551,163.471775 327.55196,162.15921 C328.704141,161.338857 329.963291,160.641567 331.329449,160.06732 C332.695606,159.493073 334.086432,159.12392 335.501969,158.959849 C337.049183,158.795779 338.053212,159.140322 338.514084,159.993489 C339.007876,160.87947 339.221849,161.740828 339.15601,162.577588 C339.090171,163.414348 338.835049,164.201875 338.390637,164.940192 C337.946224,165.67851 337.353683,166.367596 336.612995,167.007472 C335.872307,167.647347 335.082252,168.237992 334.242806,168.779425 C333.40336,169.320858 332.555697,169.788452 331.699791,170.182222 C330.843885,170.575991 330.086749,170.904127 329.42836,171.16664 C328.671212,171.461967 327.988144,171.724476 327.379134,171.954175 C326.770124,172.183874 326.235191,172.46279 325.774318,172.790931 C325.313446,173.119072 324.910189,173.537446 324.564534,174.046065 C324.21888,174.554684 323.930839,175.21916 323.700403,176.039513 C323.535806,176.564539 323.461738,177.081353 323.478198,177.589972 C323.494657,178.098591 323.609874,178.566185 323.82385,178.992769 C324.037827,179.419352 324.342327,179.755692 324.737361,180.001798 C325.132394,180.247904 325.659097,180.370955 326.317487,180.370955 C326.942956,180.370955 327.551957,180.256107 328.144507,180.026408 C328.737057,179.796709 329.29668,179.501387 329.823391,179.140431 C330.350102,178.779476 330.852117,178.377509 331.329449,177.934519 C331.806781,177.491528 332.242957,177.040341 332.637991,176.580943 C333.592655,175.530891 334.522615,174.448041 335.4279,173.332361 C336.333186,172.216681 337.180849,171.084611 337.970916,169.936117 C338.036755,169.837675 338.160201,169.616183 338.341258,169.271634 C338.522315,168.927086 338.711599,168.615357 338.909116,168.336437 C339.106632,168.057517 339.304146,167.893449 339.501663,167.844227 C339.69918,167.795006 339.847315,168.000091 339.946073,168.459489 C340.077751,169.017329 339.937845,169.583364 339.526352,170.157611 C339.114859,170.731858 338.744521,171.215859 338.415326,171.609629 C337.55942,172.659681 336.728217,173.74253 335.92169,174.85821 C335.115163,175.97389 334.2675,177.040333 333.378675,178.057571 C332.489849,179.074809 331.51051,180.009997 330.440628,180.863164 C329.370745,181.716331 328.177433,182.405417 326.860655,182.930443 C326.169346,183.192956 325.469818,183.381634 324.76205,183.496484 C324.054282,183.611333 323.321835,183.619537 322.564687,183.521094 Z M326.712518,170.526768 C326.975874,170.46114 327.263915,170.346292 327.576649,170.182222 C327.889384,170.018151 328.078668,169.91971 328.144507,169.886896 C329.099171,169.329056 329.996213,168.656377 330.835659,167.868838 C331.675105,167.081299 332.424012,166.260958 333.082401,165.407791 C333.477434,164.915579 333.856002,164.357748 334.218117,163.73428 C334.580231,163.110811 334.777744,162.470946 334.810664,161.814663 C334.843583,161.55215 334.769516,161.297845 334.588459,161.051739 C334.407402,160.805633 334.168739,160.715395 333.872464,160.781024 C333.47743,160.879466 333.082403,161.117365 332.687369,161.494727 C332.292336,161.87209 331.963146,162.192022 331.699791,162.454535 C331.502274,162.684234 331.30476,162.905726 331.107243,163.119018 C330.909727,163.33231 330.728672,163.537395 330.564075,163.73428 C330.037364,164.390562 329.52712,165.038631 329.033328,165.678506 C328.539536,166.318382 328.062211,166.982858 327.601339,167.671954 C327.5355,167.770397 327.395594,167.983685 327.181618,168.311826 C326.967641,168.639967 326.770128,168.984511 326.589071,169.345466 C326.408014,169.706421 326.301027,170.009947 326.268108,170.256053 C326.235188,170.502159 326.383323,170.592396 326.712518,170.526768 Z" id="uitcase" fill="#4A4A4A"></path>
                <path d="M49.4846691,143.412196 C49.3656511,143.565632 49.2455966,143.718032 49.124505,143.869396 C48.1665279,145.097572 47.1348757,146.202914 46.0295174,147.185454 C45.7593188,147.406526 45.4768426,147.627594 45.1820804,147.848666 C44.8873182,148.069738 44.604842,148.278524 44.3346433,148.475033 C44.0644446,148.671541 43.763546,148.849624 43.4319386,149.009286 C43.1003311,149.168949 42.7625878,149.187372 42.4186986,149.064554 C42.3695716,148.622411 42.4494018,148.161852 42.6581917,147.682863 C42.8669816,147.203875 43.0941907,146.78016 43.3398259,146.411708 C43.6100245,145.994128 43.8863599,145.582695 44.1688404,145.177397 C44.4513208,144.772099 44.7276562,144.360666 44.9978549,143.943086 C45.3417441,143.378126 45.6794874,142.831596 46.0110949,142.30348 C46.3427024,141.775364 46.6804456,141.228834 47.0243349,140.663873 C47.26997,140.197167 47.5647278,139.6752 47.908617,139.097957 C48.2525063,138.520715 48.5288417,137.925058 48.7376316,137.31097 C48.9464214,136.696882 49.0385332,136.088944 49.0139697,135.487138 C48.9894062,134.885332 48.7437747,134.326521 48.2770679,133.810687 C47.9823057,133.491361 47.6138585,133.294856 47.1717152,133.221165 C46.7295719,133.147475 46.2997168,133.135193 45.8821371,133.18432 C45.5873749,133.233447 45.2864763,133.276433 44.9794324,133.313278 C44.6723884,133.350123 44.3837714,133.429953 44.1135727,133.552771 C43.6714295,133.724716 43.2354336,133.945784 42.805572,134.215983 C42.3757105,134.486181 41.9642778,134.768658 41.5712615,135.06342 C41.497571,135.112547 41.4238815,135.167814 41.350191,135.229223 C41.2765004,135.290631 41.1905294,135.345899 41.0922754,135.395026 C41.0431483,135.444153 40.994022,135.493279 40.944895,135.542406 C40.895768,135.591533 40.8343601,135.640659 40.7606695,135.689786 C40.7606695,135.640659 40.7852327,135.591533 40.8343597,135.542406 C41.227376,134.830064 41.6326679,134.179141 42.0502477,133.589616 C42.1730653,133.368545 42.2897402,133.147476 42.4002761,132.926405 C42.5108119,132.705333 42.6397684,132.496546 42.7871495,132.300038 C43.2538563,131.514005 43.7205561,130.758689 44.1872629,130.034065 C44.6539697,129.309441 45.1329511,128.566406 45.6242214,127.804937 C45.8452931,127.461048 46.0540798,127.098741 46.250588,126.718007 C46.4470961,126.337272 46.6681644,125.974966 46.9137996,125.631077 C47.3559429,124.967862 47.7612348,124.267812 48.1296876,123.530907 C48.3261957,123.113327 48.5349824,122.665049 48.7560541,122.186061 C48.9771257,121.707072 49.0139705,121.22195 48.8665894,120.73068 C48.8420258,120.656989 48.8051811,120.595581 48.7560541,120.546454 C48.7069271,120.497327 48.5963929,120.472764 48.4244483,120.472764 C48.2525037,120.472764 48.0007314,120.491186 47.6691239,120.528032 C47.3375165,120.564877 46.889239,120.620144 46.3242781,120.693835 C46.12777,120.718398 45.9128425,120.736821 45.6794891,120.749102 C45.4461357,120.761384 45.2557713,120.767525 45.1083902,120.767525 C44.6908104,120.767525 44.4390381,120.798229 44.3530658,120.859638 C44.2670935,120.921046 44.1995449,121.086848 44.1504178,121.357046 C44.1012908,121.602681 44.0398829,121.842172 43.9661924,122.075526 C43.8925018,122.308879 43.7942492,122.54837 43.6714317,122.794005 C43.352106,123.506347 42.9590956,124.23096 42.4923888,124.967865 C41.7309198,126.245168 40.9633214,127.516311 40.1895707,128.781332 C39.4158199,130.046353 38.6482215,131.329777 37.8867525,132.631644 C37.3954822,133.466803 36.91036,134.289669 36.4313715,135.100265 C35.9523829,135.910861 35.4672607,136.709163 34.9759904,137.495196 C34.7303552,137.912775 34.4970053,138.311927 34.2759337,138.692661 C34.054862,139.073396 33.8215121,139.460265 33.575877,139.853281 C32.7652809,141.204275 31.9485563,142.542966 31.1256785,143.869396 C30.3028007,145.195826 29.4737945,146.522236 28.6386349,147.848666 C28.3684362,148.266246 28.116664,148.696101 27.8833106,149.138244 C27.6499572,149.580387 27.4104665,150.022524 27.1648313,150.464667 C27.0420137,150.661176 26.9867466,150.882244 26.9990284,151.127879 C27.0113102,151.373514 27.0788588,151.520893 27.2016764,151.57002 C27.4964386,151.643711 27.7911964,151.680555 28.0859586,151.680555 C28.4544113,151.705119 28.8228585,151.71126 29.1913113,151.698978 C29.559764,151.686696 29.9282112,151.655992 30.296664,151.606865 C30.4194815,151.582302 30.5545789,151.557739 30.70196,151.533175 C30.8493411,151.508612 30.9844384,151.471767 31.1072559,151.42264 C31.156383,151.398076 31.1809461,151.379654 31.1809461,151.367372 C31.1809461,151.35509 31.2055093,151.336668 31.2546363,151.312104 C31.3037633,151.262977 31.3590304,151.20771 31.4204392,151.146302 C31.481848,151.084893 31.5371151,151.029626 31.5862421,150.980499 C31.8318773,150.661173 32.0161009,150.32343 32.1389185,149.967259 C32.261736,149.611088 32.4213965,149.261063 32.6179046,148.917174 C32.7652857,148.646975 32.9188054,148.382921 33.0784683,148.125004 C33.2381311,147.867087 33.4039324,147.603033 33.575877,147.332835 C34.1408379,146.399421 34.7242126,145.484444 35.3260188,144.587876 C35.9278249,143.691307 36.5234812,142.77633 37.1130056,141.842916 C37.2603867,141.572718 37.4200472,141.327086 37.5919918,141.106015 C37.7639364,140.884943 37.9358784,140.651593 38.1078231,140.405958 C38.5990934,139.742743 39.0964971,139.091819 39.6000492,138.453168 C40.1036013,137.814517 40.6746945,137.249564 41.3133459,136.758294 C41.4361635,136.66004 41.651091,136.50652 41.958135,136.29773 C42.2651789,136.08894 42.5906406,135.904717 42.9345299,135.745054 C43.2784191,135.585391 43.59774,135.493279 43.8925022,135.468716 C44.1872644,135.444152 44.3960512,135.57925 44.5188687,135.874012 C44.6908133,136.291592 44.6662502,136.727587 44.4451786,137.182012 C44.2241069,137.636438 44.0276017,138.035589 43.8556571,138.379478 C43.3152598,139.362019 42.7257442,140.301559 42.0870928,141.198127 C41.4484414,142.094696 40.8466442,143.021954 40.2816834,143.979932 C40.0114847,144.471202 39.6553191,145.060717 39.2131758,145.748496 C38.7710325,146.436274 38.4148668,147.142465 38.1446682,147.867089 C37.8744695,148.591712 37.7884985,149.27334 37.8867525,149.911991 C37.9850066,150.550642 38.4394248,151.066469 39.2500209,151.459485 C39.3728384,151.508612 39.4833726,151.545457 39.5816267,151.57002 C39.6798807,151.594584 39.7781333,151.619147 39.8763874,151.64371 C40.3676577,151.766528 40.877343,151.778809 41.4054586,151.680555 C41.9335742,151.582301 42.4064148,151.434922 42.8239946,151.238414 C43.6837177,150.796271 44.48202,150.2436 45.2189254,149.580385 C45.9558309,148.91717 46.6558806,148.253965 47.3190956,147.59075 C47.4173496,147.492496 47.5033207,147.400385 47.5770112,147.314412 C47.6507018,147.22844 47.7366728,147.124047 47.8349268,147.001229 C48.0692961,146.748831 48.2970469,146.493129 48.5181828,146.234116 C48.4390315,146.631059 48.3893643,147.028002 48.3691806,147.424947 C48.3323354,148.149571 48.4367288,148.831199 48.6823639,149.46985 C48.9279991,150.108501 49.4069805,150.636609 50.1193224,151.054189 C50.6597198,151.373515 51.2492353,151.557738 51.8878868,151.606865 C52.4528476,151.680556 52.9993777,151.674415 53.5274933,151.588443 C54.0556089,151.50247 54.5775757,151.361232 55.0934096,151.164724 C56.0759502,150.771708 56.9663643,150.255882 57.7646786,149.61723 C58.5629929,148.978579 59.2937465,148.278529 59.9569615,147.51706 C60.6201764,146.755591 61.2526775,145.957289 61.8544836,145.122129 C62.4562898,144.28697 63.0765092,143.476386 63.7151607,142.690353 C63.9607958,142.395591 64.2371312,142.033285 64.5441752,141.603423 C64.8512191,141.173562 64.9556125,140.749847 64.8573585,140.332268 C64.7836679,139.988378 64.6731337,139.834859 64.5257527,139.871704 C64.3783716,139.908549 64.2309927,140.031365 64.0836116,140.240155 C63.9362305,140.448945 63.7949924,140.682295 63.659893,140.940212 C63.5247937,141.198129 63.4326819,141.36393 63.3835549,141.43762 C62.7940305,142.297343 62.1615294,143.144772 61.4860327,143.979932 C60.810536,144.815091 60.1166271,145.625675 59.4042851,146.411708 C59.1095229,146.755597 58.7840612,147.09334 58.4278902,147.424947 C58.0717193,147.756555 57.6971313,148.057454 57.304115,148.327652 C56.9110987,148.597851 56.4935252,148.818919 56.0513819,148.990864 C55.6092386,149.162808 55.1548204,149.248779 54.6881136,149.248779 C54.1968433,149.248779 53.8038329,149.156668 53.5090707,148.972441 C53.2143085,148.788215 52.9870994,148.536443 52.8274365,148.217117 C52.6677737,147.897791 52.5818027,147.547766 52.5695209,147.167032 C52.5572392,146.786297 52.6125062,146.399428 52.7353238,146.006412 C52.9072684,145.392324 53.122196,144.89492 53.3801129,144.514185 C53.6380298,144.133451 53.9389284,143.820271 54.2828176,143.574636 C54.6267068,143.329 55.025858,143.120214 55.480283,142.948269 C55.9347081,142.776324 56.4443934,142.579819 57.0093543,142.358748 C57.5006246,142.162239 58.065577,141.916608 58.7042284,141.621846 C59.3428798,141.327084 59.9753809,140.977059 60.6017506,140.571761 C61.2281202,140.166463 61.8176358,139.724326 62.3703149,139.245337 C62.922994,138.766349 63.3651307,138.250523 63.6967381,137.697844 C64.0283456,137.145165 64.21871,136.555649 64.267837,135.929279 C64.3169641,135.30291 64.1573036,134.658127 63.7888508,133.994912 C63.4449616,133.356261 62.6957856,133.098348 61.5413004,133.221165 C60.4850692,133.343983 59.4472762,133.620318 58.4278902,134.05018 C57.4085043,134.480041 56.4689639,135.002008 55.6092409,135.616096 C54.2091204,136.598637 53.011667,137.746964 52.0168446,139.061112 C51.0220222,140.37526 50.1930159,141.793782 49.529801,143.31672 C49.5146994,143.348296 49.4996555,143.380121 49.4846691,143.412196 Z M9.02668185,151.49633 C7.97045065,151.398076 6.92651687,151.152444 5.89484919,150.759428 C5.4527059,150.56292 5.01056924,150.311148 4.56842595,150.004104 C4.12628266,149.69706 3.77011701,149.334753 3.49991834,148.917174 C3.30341021,148.597848 3.16831289,148.22326 3.09462235,147.793398 C3.0209318,147.363537 3.00250944,146.927541 3.03935471,146.485398 C3.07619998,146.043254 3.17445258,145.61954 3.33411543,145.214242 C3.49377829,144.808944 3.69642426,144.458919 3.94205942,144.164157 C4.2122581,143.844831 4.5868461,143.629904 5.06583467,143.519368 C5.54482323,143.408832 5.9808191,143.414973 6.37383536,143.53779 C6.66859756,143.636045 6.94493297,143.801846 7.20284989,144.035199 C7.46076681,144.268553 7.65727199,144.544888 7.79237133,144.864214 C7.92747067,145.183539 8.00116011,145.509001 8.01344187,145.840609 C8.02572363,146.172216 7.9458934,146.485396 7.77394879,146.780158 C7.67569472,146.952103 7.56516056,147.124045 7.44234298,147.29599 C7.31952539,147.467934 7.21513202,147.646017 7.12915971,147.830243 C7.0431874,148.01447 6.99406111,148.204834 6.98177935,148.401342 C6.96949759,148.597851 7.02476467,148.794356 7.14758225,148.990864 C7.31952687,149.261063 7.54673599,149.482131 7.82921642,149.654075 C8.11169686,149.82602 8.4187362,149.954977 8.75034367,150.040949 C9.08195114,150.126921 9.41969442,150.182188 9.76358365,150.206752 C10.1074729,150.231315 10.4267938,150.231315 10.721556,150.206752 C11.7286602,150.108498 12.7234676,149.911993 13.7060083,149.61723 C14.6885489,149.322468 15.609667,148.892613 16.46939,148.327652 C17.3045496,147.762691 18.0905703,147.111768 18.8274758,146.374862 C19.5643813,145.637957 20.2460086,144.851936 20.8723783,144.016777 C21.498748,143.181617 22.0821227,142.315766 22.6225201,141.419198 C23.1629174,140.522629 23.6787435,139.632215 24.1700139,138.747929 C24.5139031,138.158404 24.8270832,137.556607 25.1095637,136.942519 C25.3920441,136.328431 25.7052242,135.726634 26.0491135,135.13711 C26.5403838,134.203696 27.0869138,133.29486 27.68872,132.410573 C28.2905261,131.526287 28.8861825,130.654295 29.4757068,129.794572 C30.0406677,128.934849 30.6301833,128.099702 31.2442712,127.289106 C31.8583591,126.47851 32.5215641,125.704771 33.233906,124.967865 C33.9216845,124.255523 34.6462973,123.598459 35.4077663,122.996653 C36.1692354,122.394847 36.9798192,121.860598 37.8395423,121.393891 C38.1834315,121.197383 38.5334564,121.037723 38.8896274,120.914905 C39.2457983,120.792088 39.5958232,120.669272 39.9397124,120.546454 C40.0379665,120.521891 40.2283309,120.460483 40.5108113,120.362229 C40.7932918,120.263975 41.0634864,120.196426 41.3214033,120.159581 C41.5793202,120.122736 41.788107,120.147299 41.9477698,120.233271 C42.1074327,120.319243 42.1135735,120.521889 41.9661924,120.841215 C41.8433748,121.062287 41.6161657,121.234229 41.2845582,121.357046 C40.9529507,121.479864 40.6888969,121.614961 40.4923888,121.762342 C40.2713171,121.95885 40.0502488,122.161496 39.8291772,122.370286 C39.6081055,122.579076 39.3993188,122.781722 39.2028106,122.97823 C38.3430876,123.911644 37.6246155,124.949437 37.0473729,126.09164 C36.4701302,127.233844 35.899037,128.357608 35.3340762,129.462966 C34.8673694,130.39638 34.3761064,131.311357 33.8602726,132.207925 C33.3444387,133.104494 32.8408942,134.007189 32.3496239,134.916039 C31.784663,135.996834 31.1951475,137.077613 30.5810595,138.158407 C29.9669716,139.239202 29.3160482,140.289277 28.6282698,141.308663 C27.9404913,142.328048 27.2035969,143.304434 26.4175644,144.237847 C25.6315319,145.171261 24.7595401,146.030971 23.801563,146.817004 C22.2294979,148.143433 20.4670921,149.199649 18.5142925,149.985681 C16.561493,150.771714 14.5657373,151.262977 12.5269654,151.459485 C11.937441,151.508612 11.3540663,151.539316 10.7768236,151.551598 C10.199581,151.563879 9.61620624,151.545457 9.02668185,151.49633 Z M15.6587981,138.600548 C14.7008209,138.551421 13.7919845,138.342635 12.9322614,137.974182 C12.0725383,137.605729 11.3970518,137.040777 10.9057814,136.279308 C10.3899476,135.468712 10.0644859,134.615142 9.92938656,133.718574 C9.79428722,132.822006 9.78814643,131.913169 9.91096401,130.992037 C10.0337816,130.070905 10.2609907,129.16821 10.5925982,128.283923 C10.9242056,127.399637 11.3110752,126.576771 11.7532185,125.815302 C12.490124,124.587126 13.3498342,123.44494 14.3323748,122.388709 C15.3149155,121.332478 16.3895532,120.374515 17.5563202,119.514792 C18.7230872,118.655069 19.9512446,117.899752 21.2408292,117.248819 C22.5304138,116.597886 23.850683,116.063637 25.2016764,115.646057 C25.9877089,115.400422 26.8105744,115.197776 27.6702974,115.038113 C28.5300205,114.87845 29.3897307,114.786339 30.2494537,114.761775 C31.9688999,114.712648 33.7251649,114.755634 35.5183016,114.890733 C37.3114383,115.025832 39.0431402,115.363576 40.7134593,115.903973 C41.5731824,116.174172 42.4328926,116.376818 43.2926156,116.511917 C44.1523387,116.647016 45.0120489,116.775973 45.8717719,116.89879 C46.5104234,116.997044 47.1490652,117.064593 47.7877166,117.101438 C48.426368,117.138284 49.0650099,117.119861 49.7036613,117.046171 C50.3177492,116.97248 50.9441095,116.837383 51.5827609,116.640875 C51.6564514,116.616311 51.7669856,116.567185 51.9143667,116.493494 C52.0617478,116.419804 52.2214083,116.352255 52.3933529,116.290846 C52.5652975,116.229438 52.724958,116.192593 52.872339,116.180311 C53.0197201,116.168029 53.1179727,116.198733 53.1670998,116.272424 C53.2899174,116.444368 53.3206213,116.640874 53.2592125,116.861945 C53.1978037,117.083017 53.0811288,117.267241 52.9091841,117.414622 C51.5336272,118.495416 50.0107121,119.189325 48.340393,119.496369 C46.6700739,119.803413 44.9874982,119.920088 43.2926156,119.846398 C42.5802737,119.797271 41.8740832,119.71744 41.1740229,119.606904 C40.4739627,119.496369 39.7800538,119.355131 39.0922754,119.183186 C37.9132266,118.912987 36.7341955,118.648933 35.5551467,118.391017 C34.3760979,118.1331 33.1970668,117.869046 32.0180181,117.598847 C31.5021842,117.476029 30.9740765,117.40234 30.4336792,117.377777 C29.8932818,117.353213 29.3528926,117.316368 28.8124952,117.267241 C28.0755897,117.218114 27.3509769,117.218114 26.6386349,117.267241 C25.9262929,117.316368 25.2139617,117.451466 24.5016197,117.672537 C23.2734439,118.04099 22.1128351,118.550675 21.0197587,119.201608 C19.9266822,119.852542 18.9380155,120.626281 18.0537289,121.522849 C17.1694423,122.419418 16.4079848,123.414225 15.7693333,124.507301 C15.1306819,125.600378 14.6517005,126.760987 14.3323748,127.989162 C14.1849937,128.578687 14.0683188,129.211188 13.9823465,129.886685 C13.8963742,130.562181 13.8902334,131.225386 13.9639239,131.876319 C14.0376145,132.527253 14.2156973,133.135191 14.4981777,133.700151 C14.7806582,134.265112 15.216654,134.744094 15.8061784,135.13711 C16.1746312,135.382745 16.6044863,135.566969 17.0957566,135.689786 C17.5870269,135.812604 18.0537267,135.874012 18.49587,135.874012 C19.0608309,135.874012 19.6319241,135.824885 20.2091667,135.726631 C20.7864093,135.628377 21.3329394,135.444154 21.8487732,135.173955 C21.9961543,135.100264 22.1803779,134.98973 22.4014495,134.842349 C22.6225212,134.694968 22.8497303,134.547589 23.0830837,134.400208 C23.3164371,134.252827 23.549787,134.130011 23.7831404,134.031757 C24.0164938,133.933503 24.2191398,133.90894 24.3910844,133.958067 C24.5384655,134.007194 24.6182957,134.087024 24.6305775,134.19756 C24.6428593,134.308096 24.6244369,134.430912 24.5753099,134.566011 C24.5261828,134.70111 24.4524934,134.823926 24.3542393,134.934462 C24.2559853,135.044998 24.1700142,135.13711 24.0963237,135.2108 C23.5804899,135.775761 22.9909743,136.273165 22.3277594,136.703026 C21.6645444,137.132888 20.9644947,137.495194 20.2275892,137.789956 C19.4906837,138.084719 18.7292262,138.305787 17.9431936,138.453168 C17.1571611,138.600549 16.3957036,138.649675 15.6587981,138.600548 Z M54.9828743,141.879761 C55.1793824,141.830634 55.39431,141.744663 55.6276634,141.621846 C55.8610168,141.499028 56.0022549,141.425339 56.0513819,141.400775 C56.7637239,140.983195 57.4330697,140.479651 58.0594393,139.890127 C58.685809,139.300602 59.2446206,138.686523 59.7358909,138.047872 C60.0306531,137.679419 60.3131293,137.261846 60.583328,136.795139 C60.8535267,136.328432 61.0009056,135.849451 61.0254691,135.35818 C61.0500326,135.161672 60.9947655,134.971308 60.8596662,134.787082 C60.7245668,134.602855 60.546484,134.535307 60.3254124,134.584434 C60.0306502,134.658124 59.7358924,134.836207 59.4411302,135.118687 C59.146368,135.401168 58.9007365,135.640659 58.7042284,135.837167 C58.5568473,136.009111 58.4094684,136.174913 58.2620873,136.334575 C58.1147062,136.494238 57.9796089,136.647758 57.8567913,136.795139 C57.4637751,137.286409 57.0830463,137.771531 56.7145936,138.25052 C56.3461408,138.729509 55.9899752,139.226912 55.6460859,139.742746 C55.5969589,139.816437 55.4925655,139.976097 55.3329027,140.221732 C55.1732398,140.467368 55.0258609,140.725281 54.8907616,140.995479 C54.7556623,141.265678 54.675832,141.492887 54.6512685,141.677113 C54.626705,141.86134 54.7372392,141.928888 54.9828743,141.879761 L54.9828743,141.879761 Z" id="The" fill="#4A4A4A"></path>
                <path d="M0.5,169.5 L69.5,169.5" id="Line" stroke="#979797" stroke-linecap="square"></path>
                <path d="M209.5,195.5 L334.515999,195.5" id="Line-Copy" stroke="#979797" stroke-linecap="square"></path>
            </g>
        </g>
    </g>
</svg>