<?xml version="1.0" encoding="UTF-8" standalone="no"?>
<svg width="29px" height="24px" viewBox="0 0 29 24" version="1.1" xmlns="http://www.w3.org/2000/svg" xmlns:xlink="http://www.w3.org/1999/xlink">
    <!-- Generator: Sketch 3.7.2 (28276) - http://www.bohemiancoding.com/sketch -->
    <title>social-color-1_logo-twitter</title>
    <desc>Created with Sketch.</desc>
    <defs></defs>
    <g id="Page-1" stroke="none" stroke-width="1" fill="none" fill-rule="evenodd">
        <g id="Desktop-HD" transform="translate(-665.000000, -553.000000)" fill="#69ACE0">
            <g id="social-color-1_logo-twitter" transform="translate(665.000000, 553.000000)">
                <path d="M28.5517241,3.08935188 C27.5012408,3.56254729 26.3723413,3.88242938 25.1873377,4.026215 C26.3968125,3.28989896 27.3256239,2.12389354 27.7629471,0.734545833 C26.6311805,1.41637813 25.3775457,1.91152896 24.0432284,2.17838333 C22.974704,1.02200833 21.4523141,0.299473333 19.767578,0.299473333 C16.5324,0.299473333 13.9096743,2.96338313 13.9096743,6.24904083 C13.9096743,6.71540313 13.9614838,7.16942833 14.0613256,7.60492375 C9.19301871,7.35682271 4.87677129,4.98815104 1.98764612,1.38851396 C1.48342267,2.26726833 1.19459224,3.28927667 1.19459224,4.37965854 C1.19459224,6.44378792 2.22874759,8.26489125 3.80049026,9.33186771 C2.84027793,9.30100083 1.93706198,9.03331875 1.14726181,8.58767333 C1.14685138,8.61253479 1.14676216,8.63740229 1.14676216,8.66246917 C1.14676216,11.5452142 3.16591629,13.9499425 5.84566216,14.4964838 C5.35408474,14.632385 4.83659069,14.7051146 4.30238198,14.7051146 C3.92491629,14.7051146 3.55796121,14.6678194 3.20028543,14.5984127 C3.94571741,16.9621181 6.10899828,18.6823256 8.6722769,18.7303931 C6.66749379,20.326094 4.14174879,21.2772517 1.39734517,21.2772517 C0.924522672,21.2772456 0.458231379,21.2490733 0,21.1941667 C2.5923419,22.8822567 5.67136578,23.8671873 8.97935664,23.8671873 C19.7539089,23.8671873 25.6457713,14.8012375 25.6457713,6.93894479 C25.6457713,6.68100188 25.6400669,6.42441229 25.6288425,6.16927271 C26.7732551,5.33040542 27.7664209,4.28249042 28.5517241,3.08935188 L28.5517241,3.08935188 Z" id="Shape"></path>
            </g>
        </g>
    </g>
</svg>