<?xml version="1.0" encoding="UTF-8" standalone="no"?>
<svg width="29px" height="29px" viewBox="0 0 29 29" version="1.1" xmlns="http://www.w3.org/2000/svg" xmlns:xlink="http://www.w3.org/1999/xlink">
    <!-- Generator: Sketch 3.7.2 (28276) - http://www.bohemiancoding.com/sketch -->
    <title>Shape</title>
    <desc>Created with Sketch.</desc>
    <defs></defs>
    <g id="Page-1" stroke="none" stroke-width="1" fill="none" fill-rule="evenodd">
        <g id="Desktop-HD" transform="translate(-748.000000, -550.000000)" fill="#191717">
            <path d="M762.27494,550.358059 C754.392237,550.358059 748,556.849854 748,564.858899 C748,571.264625 752.09007,576.699382 757.763417,578.617007 C758.477234,578.749996 758.73778,578.302345 758.73778,577.91807 C758.73778,577.573853 758.725425,576.66199 758.718502,575.451935 C754.747445,576.328188 753.909541,573.508222 753.909541,573.508222 C753.260399,571.833151 752.32451,571.387192 752.32451,571.387192 C751.028339,570.487527 752.422579,570.505773 752.422579,570.505773 C753.855203,570.608318 754.609236,572.000053 754.609236,572.000053 C755.882709,574.215882 757.950442,573.576045 758.763899,573.204858 C758.893601,572.267807 759.262388,571.628865 759.670256,571.266395 C756.500211,570.900457 753.167594,569.656484 753.167594,564.100048 C753.167594,562.517107 753.723836,561.222758 754.637021,560.209154 C754.490229,559.842328 754.000329,558.368077 754.776978,556.371759 C754.776978,556.371759 755.975603,555.981878 758.702727,557.858209 C759.841411,557.536599 761.062646,557.375751 762.276701,557.370145 C763.489001,557.375751 764.710325,557.536599 765.850675,557.858209 C768.576133,555.981878 769.772569,556.371759 769.772569,556.371759 C770.551407,558.368077 770.061424,559.842328 769.914632,560.209154 C770.829572,561.222758 771.382042,562.517113 771.382042,564.100048 C771.382042,569.670374 768.044256,570.896095 764.863957,571.255091 C765.37655,571.702742 765.833145,572.587719 765.833145,573.940291 C765.833145,575.878748 765.815616,577.44264 765.815616,577.918064 C765.815616,578.305806 766.072748,578.756932 766.797254,578.615309 C772.465062,576.694125 776.551724,571.262933 776.551724,564.858899 C776.551724,556.849854 770.159398,550.358059 762.27494,550.358059 L762.27494,550.358059 Z" id="Shape"></path>
        </g>
    </g>
</svg>