<?xml version="1.0" encoding="UTF-8" standalone="no"?>
<svg width="23px" height="26px" viewBox="0 0 23 26" version="1.1" xmlns="http://www.w3.org/2000/svg" xmlns:xlink="http://www.w3.org/1999/xlink">
    <!-- Generator: Sketch 3.7.2 (28276) - http://www.bohemiancoding.com/sketch -->
    <title>S Copy 6</title>
    <desc>Created with Sketch.</desc>
    <defs></defs>
    <g id="Page-1" stroke="none" stroke-width="1" fill="none" fill-rule="evenodd">
        <g id="Desktop-HD" transform="translate(-29.000000, -126.000000)" fill="#4A4A4A">
            <path d="M33.5984691,151.476746 C33.2540128,151.390908 32.918173,151.279319 32.5909395,151.141978 C31.712576,150.764288 31.0064511,150.257848 30.4725439,149.622643 C29.9386366,148.987438 29.5339065,148.214903 29.2583415,147.305015 C28.9999993,146.429462 28.9354147,145.523879 29.0645858,144.588239 C29.1937569,143.652599 29.4564009,142.747017 29.8525256,141.871464 C30.2486504,140.995911 30.7610214,140.184749 31.3896542,139.437954 C32.0182869,138.691159 32.6942723,138.077422 33.4176305,137.596727 C34.3648853,136.978689 35.3810161,136.523752 36.4660535,136.231901 C36.793287,136.146062 37.1334325,136.09456 37.4865002,136.077392 C37.8395679,136.060225 38.1883246,136.09456 38.5327809,136.180398 C39.273362,136.369243 39.8330951,136.716884 40.211997,137.223331 C40.5908989,137.729778 40.8234034,138.304888 40.9095175,138.948677 C40.9956316,139.592465 40.9611865,140.257704 40.8061811,140.944412 C40.6511758,141.63112 40.41006,142.231981 40.0828265,142.747012 C39.8933756,143.021695 39.6910105,143.279207 39.4757253,143.519555 C39.2604401,143.759903 39.0150187,143.974496 38.7394537,144.163341 C38.6705624,144.214844 38.5758384,144.279222 38.4552786,144.356476 C38.3347189,144.433731 38.2098554,144.498109 38.0806843,144.549612 C37.9515132,144.601115 37.822344,144.63545 37.6931729,144.652618 C37.5640018,144.669786 37.4563608,144.635451 37.3702467,144.549612 C37.3013555,144.480941 37.271216,144.412272 37.2798274,144.343601 C37.2884388,144.27493 37.3185783,144.20626 37.3702467,144.137589 C37.4219152,144.068918 37.4778885,144.004541 37.5381683,143.944454 C37.5984482,143.884367 37.6544215,143.837156 37.7060899,143.802821 C37.8783181,143.665479 38.046238,143.532431 38.2098548,143.403674 C38.3734715,143.274916 38.498335,143.116117 38.5844491,142.927272 C38.7566773,142.601086 38.8987634,142.214818 39.0107117,141.768458 C39.1226599,141.322098 39.1743276,140.871452 39.1657162,140.416508 C39.1571048,139.961564 39.070992,139.532378 38.9073753,139.128937 C38.7437585,138.725495 38.4811146,138.403606 38.1194354,138.163258 C37.6371966,137.854239 37.1377425,137.691149 36.621058,137.673981 C36.1043736,137.656813 35.6049195,137.746942 35.1226806,137.944371 C34.6404418,138.141799 34.196961,138.416479 33.7922248,138.768417 C33.3874887,139.120354 33.0473432,139.510914 32.7717782,139.940107 C32.2895394,140.712653 31.9106431,141.571026 31.6350781,142.515249 C31.359513,143.459473 31.264789,144.386515 31.350903,145.296404 C31.3853487,145.674093 31.4628502,146.064652 31.5834099,146.468093 C31.7039696,146.871535 31.8589726,147.236343 32.0484236,147.562529 C32.2550973,147.940219 32.5478808,148.300735 32.9267827,148.644089 C33.3056847,148.987443 33.6673583,149.27929 34.0118146,149.519638 C34.4596078,149.845824 34.9547563,150.081876 35.497275,150.227802 C36.0397937,150.373727 36.5866098,150.442397 37.1377399,150.433813 C37.68887,150.42523 38.2313805,150.3351 38.7652878,150.163423 C39.299195,149.991746 39.7900379,149.742818 40.2378311,149.416632 C40.4789505,149.227787 40.7157606,149.021778 40.9482686,148.798598 C41.1807766,148.575418 41.391753,148.343657 41.5812039,148.103309 C41.8912146,147.708452 42.183998,147.257806 42.4595631,146.751359 C42.7351281,146.244912 42.9331875,145.742764 43.0537472,145.244901 C43.2087526,144.678366 43.2862541,144.077506 43.2862541,143.442301 C43.2862541,142.54958 43.1312511,141.686916 42.8212404,140.854282 C42.5112297,140.021649 42.209835,139.193319 41.9170471,138.369269 C41.7620418,137.905741 41.6199557,137.44222 41.4907846,136.978692 C41.3616135,136.515164 41.2281387,136.051643 41.0903561,135.588115 C40.918128,135.004413 40.8320152,134.399261 40.8320152,133.77264 C40.8320152,133.146018 40.9052111,132.536574 41.051605,131.944288 C41.1979989,131.352002 41.4089752,130.776893 41.6845403,130.218942 C41.9601053,129.660992 42.2959452,129.150261 42.6920699,128.686733 C42.9331893,128.429217 43.187222,128.180289 43.4541757,127.939941 C43.7211293,127.699593 44.0009958,127.485 44.2937837,127.296155 C44.6210172,127.090143 44.9654683,126.901301 45.3271474,126.729624 C45.6888265,126.557947 46.0591115,126.412024 46.4380134,126.29185 C46.9202522,126.154508 47.4154007,126.064379 47.9234738,126.02146 C48.4315468,125.97854 48.8405825,126 49.1505932,126.085838 C49.2194845,126.120174 49.2926803,126.141633 49.370183,126.150217 C49.4476857,126.158801 49.503659,126.171676 49.5381046,126.188844 C50.1236803,126.326186 50.592995,126.587989 50.9460627,126.974263 C51.2991304,127.360536 51.5617744,127.80689 51.7340025,128.313337 C51.9062307,128.819784 51.9966491,129.356267 52.0052605,129.922801 C52.0138719,130.489335 51.9578986,131.012942 51.8373389,131.493638 C51.6995564,132.025837 51.5144139,132.502234 51.2819059,132.922842 C51.0493979,133.343451 50.7350862,133.751178 50.3389615,134.146035 C50.0461736,134.437886 49.718945,134.67823 49.3572659,134.867075 C48.9955868,135.05592 48.6166906,135.184676 48.2205658,135.253347 C48.1000061,135.287682 47.95792,135.313433 47.7943033,135.330601 C47.6306866,135.347769 47.4756836,135.343477 47.3292896,135.317725 C47.1828957,135.291974 47.0537265,135.240471 46.9417782,135.163217 C46.8298299,135.085962 46.7738566,134.961498 46.7738566,134.789821 C46.7566338,134.583808 46.8039958,134.467928 46.9159441,134.442177 C47.0278924,134.416425 47.1613672,134.40355 47.3163726,134.40355 C47.7297201,134.386382 48.0870882,134.270502 48.3884874,134.055905 C48.6898867,133.841309 48.9439194,133.570922 49.1505932,133.244735 C49.357267,132.918549 49.5208813,132.566616 49.641441,132.188927 C49.7620007,131.811237 49.8395022,131.442137 49.8739478,131.081615 C49.9083934,130.772597 49.9126991,130.442123 49.8868648,130.090185 C49.8610306,129.738247 49.796446,129.394898 49.6931091,129.060128 C49.5897723,128.725358 49.4390749,128.420636 49.2410125,128.145953 C49.0429501,127.871269 48.7889174,127.656676 48.4789068,127.502167 C48.1172277,127.33049 47.7512483,127.244653 47.3809578,127.244653 C47.0106673,127.244653 46.6489936,127.317614 46.2959259,127.46354 C45.9428582,127.609465 45.6199353,127.811183 45.3271474,128.068698 C45.0343596,128.326214 44.7932438,128.609477 44.6037928,128.918495 C44.3798962,129.296185 44.1947537,129.721079 44.0483598,130.193191 C43.9019659,130.665303 43.8201587,131.115948 43.8029359,131.545141 C43.7684903,132.266185 43.8546031,132.961466 44.0612769,133.631007 C44.2679506,134.300547 44.4918439,134.961494 44.7329633,135.613867 C44.8707458,135.991556 45.0128319,136.360656 45.1592258,136.721178 C45.3056197,137.0817 45.4390945,137.459384 45.5596543,137.854241 C45.8696649,138.815632 46.1150863,139.802761 46.2959259,140.815655 C46.4767655,141.82855 46.4724598,142.841429 46.2830089,143.854324 C46.1452263,144.644038 45.8610542,145.416573 45.4304838,146.171952 C44.9999134,146.927331 44.5349044,147.605445 44.0354428,148.206315 C43.5532039,148.772849 42.9891652,149.274997 42.3433097,149.712773 C41.6974541,150.15055 41.0042462,150.523942 40.2636652,150.832961 C39.5230841,151.141979 38.7652916,151.378032 37.990265,151.541125 C37.2152383,151.704218 36.4660571,151.77718 35.7426989,151.760012 C35.3810198,151.760012 35.0193461,151.734261 34.657667,151.682758 C34.2959879,151.631255 33.9429254,151.562585 33.5984691,151.476746 Z" id="S-Copy-6"></path>
        </g>
    </g>
</svg>